<svg width="10" height="4" viewBox="0 0 10 4" fill="none" xmlns="http://www.w3.org/2000/svg">
<path d="M8.61328 0.228516L9.94922 0.219727C9.94922 0.670898 9.87891 1.0957 9.73828 1.49414C9.60352 1.89258 9.40723 2.24414 9.14941 2.54883C8.89746 2.84766 8.5957 3.08496 8.24414 3.26074C7.89844 3.43066 7.51758 3.51562 7.10156 3.51562C6.5918 3.51562 6.14062 3.41309 5.74805 3.20801C5.36133 3.00293 4.93945 2.70117 4.48242 2.30273C4.18359 2.02734 3.9082 1.81348 3.65625 1.66113C3.4043 1.50879 3.13184 1.43262 2.83887 1.43262C2.54004 1.43262 2.28516 1.50586 2.07422 1.65234C1.86328 1.79297 1.69922 1.99512 1.58203 2.25879C1.4707 2.52246 1.41504 2.83887 1.41504 3.20801L0 3.22559C0 2.76855 0.0673828 2.34375 0.202148 1.95117C0.342773 1.55859 0.539062 1.21582 0.791016 0.922852C1.04297 0.629883 1.3418 0.404297 1.6875 0.246094C2.03906 0.0820312 2.42285 0 2.83887 0C3.35449 0 3.81152 0.108398 4.20996 0.325195C4.61426 0.541992 5.03027 0.84082 5.45801 1.22168C5.78027 1.51465 6.06152 1.73438 6.30176 1.88086C6.54785 2.02148 6.81445 2.0918 7.10156 2.0918C7.40625 2.0918 7.66992 2.0127 7.89258 1.85449C8.12109 1.69629 8.29688 1.47656 8.41992 1.19531C8.54883 0.914062 8.61328 0.591797 8.61328 0.228516Z" fill="#AAAAAA"/>
</svg>
