<svg width="20" height="20" viewBox="0 0 20 20" fill="none" xmlns="http://www.w3.org/2000/svg">
<path d="M10 2L10 1.25H10V2ZM16.5 12.127H17.25V12.1269L16.5 12.127ZM14.3369 14.6406L14.4359 15.3841L14.4359 15.3841L14.3369 14.6406ZM10 15V15.75V15.75V15ZM5.66309 14.6406L5.56409 15.3841L5.56414 15.3841L5.66309 14.6406ZM3.5 12.127L2.75 12.1269V12.127H3.5ZM10 2L9.99997 2.75C12.3778 2.75011 14.3057 4.67788 14.3057 7.05566H15.0557H15.8057C15.8057 3.84939 13.2062 1.25015 10 1.25L10 2ZM15.0557 7.05566H14.3057V8.25174H15.0557H15.8057V7.05566H15.0557ZM16.1635 10.8487L15.5113 11.2189C15.663 11.4862 15.75 11.7952 15.75 12.127L16.5 12.127L17.25 12.1269C17.25 11.5287 17.0922 10.9655 16.8158 10.4785L16.1635 10.8487ZM16.5 12.127H15.75C15.75 13.0321 15.1032 13.782 14.2379 13.8972L14.3369 14.6406L14.4359 15.3841C16.0782 15.1654 17.25 13.7516 17.25 12.127H16.5ZM14.3369 14.6406L14.238 13.8972C12.9168 14.073 11.2669 14.25 10 14.25V15V15.75C11.3719 15.75 13.1042 15.5613 14.4359 15.3841L14.3369 14.6406ZM10 15V14.25C8.73308 14.25 7.08322 14.073 5.76203 13.8972L5.66309 14.6406L5.56414 15.3841C6.89583 15.5613 8.62808 15.75 10 15.75V15ZM5.66309 14.6406L5.76209 13.8972C4.89679 13.782 4.25 13.0321 4.25 12.127H3.5H2.75C2.75 13.7516 3.92181 15.1654 5.56409 15.3841L5.66309 14.6406ZM3.5 12.127L4.25 12.127C4.25003 11.7952 4.33696 11.4862 4.48871 11.2189L3.83646 10.8487L3.1842 10.4785C2.90775 10.9655 2.75005 11.5287 2.75 12.1269L3.5 12.127ZM4.94434 8.25174H5.69434V7.05566H4.94434H4.19434V8.25174H4.94434ZM4.94434 7.05566H5.69434C5.69434 4.67777 7.62211 2.75 10 2.75V2V1.25C6.79368 1.25 4.19434 3.84934 4.19434 7.05566H4.94434ZM3.83646 10.8487L4.48871 11.2189C4.67604 10.8888 5.01335 10.3694 5.23385 9.93778C5.47686 9.46213 5.69434 8.89571 5.69434 8.25174H4.94434H4.19434C4.19434 8.55625 4.09196 8.87586 3.89809 9.25533C3.68169 9.67888 3.46506 9.98362 3.1842 10.4785L3.83646 10.8487ZM15.0557 8.25174H14.3057C14.3057 8.89571 14.5231 9.46213 14.7662 9.93778C14.9866 10.3694 15.324 10.8888 15.5113 11.2189L16.1635 10.8487L16.8158 10.4785C16.5349 9.98362 16.3183 9.67888 16.1019 9.25533C15.908 8.87586 15.8057 8.55625 15.8057 8.25174H15.0557Z" fill="#1F2233"/>
<path d="M12 17C11.63 17.5565 10.7183 18 10 18C9.28167 18 8.36999 17.5565 8 17" stroke="#1F2233" stroke-width="1.5" stroke-linecap="round"/>
<circle cx="18.3334" cy="1.66667" r="1.66667" fill="#E8361F"/>
</svg>
