<svg width="109" height="29" viewBox="0 0 109 29" fill="none" xmlns="http://www.w3.org/2000/svg">
<path d="M23.7812 28.4375H20V14.1562H17.25V27.0625H13.5938V0.46875H17.25V10.9688H20V0H23.7812V28.4375ZM10.5938 6.5H4V18.6406C5.5 18.6198 6.875 18.5625 8.125 18.4688C9.375 18.375 10.6458 18.2083 11.9375 17.9688L12.2188 21.2188C10.625 21.5208 9.0625 21.724 7.53125 21.8281C6 21.9219 4.14583 21.9792 1.96875 22H0V3.28125H10.5938V6.5ZM37.9062 6.4375C37.9062 8.21875 38.1771 9.94271 38.7188 11.6094C39.2604 13.2656 40.0677 14.7396 41.1406 16.0312C42.224 17.3125 43.5417 18.2812 45.0938 18.9375L42.75 22.125C41.1667 21.4062 39.8021 20.3802 38.6562 19.0469C37.5208 17.7031 36.6198 16.125 35.9531 14.3125C35.2865 16.2917 34.3594 18.0104 33.1719 19.4688C31.9948 20.9271 30.5625 22.0417 28.875 22.8125L26.4688 19.5C28.0729 18.8229 29.4271 17.8177 30.5312 16.4844C31.6354 15.1406 32.4635 13.6042 33.0156 11.875C33.5781 10.1458 33.8646 8.33333 33.875 6.4375V2.1875H37.9062V6.4375ZM50.6562 28.5H46.625V0H50.6562V28.5ZM80.5312 25.125H54.5V21.875H65.4688V16.625H57.25V1.8125H61.25V6.21875H73.6562V1.8125H77.625V16.625H69.4375V21.875H80.5312V25.125ZM73.6562 13.4375V9.40625H61.25V13.4375H73.6562ZM105.344 16.3438H85.2188V2.375H105.125V5.59375H89.1562V13.1562H105.344V16.3438ZM108.188 24.9688H82.1562V21.6875H108.188V24.9688Z" fill="#1E1E1E"/>
</svg>
