<svg width="153" height="28" viewBox="0 0 153 28" fill="none" xmlns="http://www.w3.org/2000/svg">
<path d="M15.5625 10.2812C15.1875 7.78125 13.25 6.25 10.625 6.25C7.09375 6.25 4.78125 8.96875 4.78125 13.7188C4.78125 18.5938 7.125 21.1875 10.5938 21.1875C13.1875 21.1875 15.0938 19.75 15.5625 17.3125L20.3125 17.3438C19.7812 21.5312 16.2812 25.3438 10.5312 25.3438C4.46875 25.3438 0 21.0938 0 13.7188C0 6.34375 4.5625 2.09375 10.5312 2.09375C15.75 2.09375 19.6875 5.09375 20.3125 10.2812H15.5625ZM31.125 25.375C26 25.375 22.8125 21.8438 22.8125 16.5938C22.8125 11.3438 26 7.84375 31.125 7.84375C36.25 7.84375 39.4688 11.3438 39.4688 16.5938C39.4688 21.8438 36.25 25.375 31.125 25.375ZM31.1562 21.7812C33.5312 21.7812 34.75 19.5625 34.75 16.5938C34.75 13.5938 33.5312 11.375 31.1562 11.375C28.75 11.375 27.5 13.5938 27.5 16.5938C27.5 19.5625 28.75 21.7812 31.1562 21.7812ZM45.1875 25.0312H40.125L47.9688 2.40625H54L61.8125 25.0312H56.7812L55.0938 19.8125H46.9062L45.1875 25.0312ZM48.0938 16.1562H53.9062L51.0625 7.5H50.9062L48.0938 16.1562ZM88.0625 15.7812L72.5625 22.625V18.2188L83.0938 13.9375V13.75L72.5625 9.5V5.09375L88.0625 11.9688V15.7812ZM124.969 12.4688V15.7188H98.9688V12.4688H124.969ZM122 7.3125V10.4688H102.125V0.21875H121.844V3.4375H106.094V7.3125H122ZM111.906 17.4375C118.062 17.4375 121.781 19.3125 121.812 22.6562C121.781 26.0312 118.062 27.9062 111.906 27.9062C105.688 27.9062 101.938 26.0312 101.938 22.6562C101.938 19.3125 105.688 17.4375 111.906 17.4375ZM111.906 20.4688C107.969 20.4688 105.969 21.2188 106 22.6562C105.969 24.1562 107.969 24.875 111.906 24.875C115.75 24.875 117.781 24.1562 117.812 22.6562C117.781 21.2188 115.75 20.4688 111.906 20.4688ZM152.625 14.7188V17.9062H126.594V14.7188H137.625V12.6562H129.844V4.84375H145.469V3.09375H129.781V0H149.469V7.71875H133.812V9.59375H150V12.6562H141.594V14.7188H152.625ZM149.625 19.5312V27.7812H145.594V22.6562H129.5V19.5312H149.625Z" fill="#1E1E1E"/>
</svg>
