<svg width="172" height="29" viewBox="0 0 172 29" fill="none" xmlns="http://www.w3.org/2000/svg">
<path d="M5.0625 25.5625H0L7.84375 2.9375H13.875L21.6875 25.5625H16.6562L14.9688 20.3438H6.78125L5.0625 25.5625ZM7.96875 16.6875H13.7812L10.9375 8.03125H10.7812L7.96875 16.6875ZM35.0312 18.3438V8.59375H39.6562V25.5625H35.2188V22.5H35.0312C34.25 24.4688 32.4375 25.7812 29.875 25.7812C26.4688 25.7812 24.1562 23.375 24.1562 19.4062V8.59375H28.7812V18.5938C28.7812 20.5938 29.9375 21.875 31.75 21.875C33.4375 21.875 35.0312 20.6562 35.0312 18.3438ZM49.5 25.8438C45.625 25.8438 42.5938 22.75 42.5938 17.0938C42.5938 11.2812 45.75 8.375 49.5 8.375C52.3438 8.375 53.6875 10.0625 54.3125 11.4375H54.4688V2.9375H59.0938V25.5625H54.5312V22.8438H54.3125C53.6562 24.25 52.25 25.8438 49.5 25.8438ZM50.9375 22.1562C53.25 22.1562 54.5625 20.125 54.5625 17.0625C54.5625 14 53.25 12.0625 50.9375 12.0625C48.5938 12.0625 47.3438 14.0938 47.3438 17.0625C47.3438 20.0625 48.5938 22.1562 50.9375 22.1562ZM62.8125 25.5625V8.59375H67.4375V25.5625H62.8125ZM65.125 6.375C63.7188 6.375 62.5938 5.3125 62.5938 4.03125C62.5938 2.71875 63.7188 1.65625 65.125 1.65625C66.5 1.65625 67.625 2.71875 67.625 4.03125C67.625 5.3125 66.5 6.375 65.125 6.375ZM79.9688 8.59375V12.0625H76.7812V20.3438C76.7812 21.6875 77.4375 22.0312 78.375 22.0625C78.8438 22.0625 79.6562 22.0312 80.2188 21.9688V25.625C79.7188 25.7188 78.9062 25.7812 77.75 25.7812C74.4062 25.7812 72.125 24.2812 72.1562 21V12.0625H69.8125V8.59375H72.1562V4.53125H76.7812V8.59375H79.9688ZM106.656 18.4375L91.1562 25.2812V20.875L101.688 16.5938V16.4062L91.1562 12.1562V7.75L106.656 14.625V18.4375ZM141.531 0V14.3125H137.562V12.125H131.062V9.09375H137.562V6.59375H131.375C129.609 10.875 125.547 13.6094 119.25 14.9688L117.906 11.7188C124.422 10.4219 127.438 7.73438 127.969 4.3125H119.5V1.09375H132.375C132.375 1.95312 132.312 2.78125 132.188 3.5625H137.562V0H141.531ZM141.531 15.3438V23.125H126.656V25H142.156V28.1562H122.656V20.1875H137.531V18.4688H122.625V15.3438H141.531ZM161.219 2.84375V5.125C161.188 7.8125 161.188 11.3125 160.438 16.0312L156.5 15.7188C157.141 11.5938 157.203 8.54688 157.25 6.03125H146.469V2.84375H161.219ZM154.125 11V19.25C156.922 19.1406 159.766 18.9375 162.375 18.5938L162.625 21.5625C156.781 22.5625 150.312 22.6562 145.344 22.625L144.969 19.4375C146.562 19.4219 148.344 19.4219 150.188 19.375V11H154.125ZM167.75 0V11.4375H171.625V14.75H167.75V28.4375H163.719V0H167.75Z" fill="#1E1E1E"/>
</svg>
