<svg width="62" height="24" viewBox="0 0 62 24" fill="none" xmlns="http://www.w3.org/2000/svg">
<path d="M0 22.9375V0.3125H8.875C14.0312 0.3125 16.9688 3.46875 16.9688 7.9375C16.9688 12.4688 13.9688 15.5625 8.75 15.5625H4.6875V22.9375H0ZM4.6875 11.7812H8C10.7812 11.7812 12.125 10.2188 12.125 7.9375C12.125 5.6875 10.7812 4.15625 8 4.15625H4.6875V11.7812ZM35.0625 8.1875C34.6875 5.6875 32.75 4.15625 30.125 4.15625C26.5938 4.15625 24.2812 6.875 24.2812 11.625C24.2812 16.5 26.625 19.0938 30.0938 19.0938C32.6875 19.0938 34.5938 17.6562 35.0625 15.2188L39.8125 15.25C39.2812 19.4375 35.7812 23.25 30.0312 23.25C23.9688 23.25 19.5 19 19.5 11.625C19.5 4.25 24.0625 0 30.0312 0C35.25 0 39.1875 3 39.8125 8.1875H35.0625ZM61.9688 0.3125V22.9375H57.9062L47.9688 8.5625H47.7812V22.9375H43.0938V0.3125H47.2188L57.0938 14.6875H57.3125V0.3125H61.9688Z" fill="#1E1E1E"/>
</svg>
