<svg width="24" height="24" viewBox="0 0 24 24" fill="none" xmlns="http://www.w3.org/2000/svg">
<path d="M17.1908 3.30005C15.8195 3.30005 14.709 4.47545 14.709 5.83388C14.009 6.04644 13.5 6.69178 13.5 7.45488C13.5 8.3911 14.2661 9.15005 15.2112 9.15005H19.0362C19.7408 9.11681 21.15 8.66476 21.15 7.12249C21.15 6.15337 20.4854 5.33802 19.5832 5.09924C19.2919 4.06156 18.3311 3.30005 17.1908 3.30005Z" stroke="#1E7AFF" stroke-width="1.5" stroke-linecap="round"/>
<path d="M6.39074 14.7C5.01948 14.7 3.90895 15.8753 3.90895 17.2338C3.20894 17.4463 2.69995 18.0917 2.69995 18.8548C2.69995 19.791 3.46607 20.55 4.41114 20.55H8.23613C8.94074 20.5167 10.35 20.0647 10.35 18.5224C10.35 17.5533 9.6854 16.7379 8.7831 16.4991C8.49181 15.4615 7.53105 14.7 6.39074 14.7Z" stroke="#1E7AFF" stroke-width="1.5" stroke-linecap="round"/>
<path d="M4.19995 10.8001V6.37174C4.19995 6.15907 4.41924 5.98667 4.68975 5.98667L5.66934 5.98666L10.2 5.98666M10.2 5.98666L8.11832 4.3501M10.2 5.98666L8.11832 7.62322" stroke="#828597" stroke-width="1.5" stroke-linecap="round"/>
<path d="M19.8 13.1999V17.6283C19.8 17.8409 19.5808 18.0133 19.3103 18.0133L18.3307 18.0133L13.8 18.0133M13.8 18.0133L15.8817 19.6499M13.8 18.0133L15.8817 16.3768" stroke="#828597" stroke-width="1.5" stroke-linecap="round"/>
</svg>
