<svg width="24" height="24" viewBox="0 0 24 24" fill="none" xmlns="http://www.w3.org/2000/svg">
<path d="M4.65039 6H9.49414C9.54051 6.00013 9.584 6.02187 9.6123 6.05859L11.5469 8.5791C11.8592 8.98601 12.3435 9.22461 12.8564 9.22461H19.2002C19.2829 9.22471 19.3496 9.29222 19.3496 9.375V17.7002C19.3495 17.7829 19.2829 17.8495 19.2002 17.8496H4.65039C4.56761 17.8496 4.5001 17.7829 4.5 17.7002V6.15039C4.5 6.06755 4.56755 6 4.65039 6Z" stroke="#828597" stroke-width="1.5"/>
<path d="M19.35 13.5V17.7C19.35 17.7828 19.2828 17.85 19.2 17.85H4.65C4.56716 17.85 4.5 17.7828 4.5 17.7V13.5" stroke="#1E7AFF" stroke-width="1.5"/>
</svg>
