<svg width="24" height="24" viewBox="0 0 24 24" fill="none" xmlns="http://www.w3.org/2000/svg">
<path d="M4.19995 19.8H11.925M19.65 19.8H11.925M11.925 19.8V16.5" stroke="#1E7AFF" stroke-width="1.5" stroke-linecap="round"/>
<path d="M6.89966 4.94995H16.6497C17.3951 4.94995 18 5.55416 18.0002 6.29956V9.15015C18.0001 9.89564 17.3952 10.4998 16.6497 10.4998H6.89966C6.15432 10.4995 5.55015 9.89551 5.55005 9.15015V6.29956C5.55026 5.55429 6.15438 4.95016 6.89966 4.94995Z" stroke="#828597" stroke-width="1.5"/>
<path d="M6.89966 10.6499H16.6497C17.3951 10.6499 18 11.2541 18.0002 11.9995V14.8501C18.0001 15.5956 17.3952 16.1997 16.6497 16.1997H6.89966C6.15432 16.1995 5.55015 15.5955 5.55005 14.8501V11.9995C5.55026 11.2542 6.15438 10.6501 6.89966 10.6499Z" stroke="#828597" stroke-width="1.5"/>
<circle cx="8.4" cy="7.80015" r="0.9" fill="#1E7AFF"/>
<circle cx="8.4" cy="13.5001" r="0.9" fill="#1E7AFF"/>
</svg>
