<svg width="24" height="24" viewBox="0 0 24 24" fill="none" xmlns="http://www.w3.org/2000/svg">
<path d="M2.25 2.1001V21.6001C2.25 21.6829 2.31716 21.7501 2.4 21.7501H21.9" stroke="#828597" stroke-width="1.5" stroke-linecap="round"/>
<path d="M7.7999 13.1501V10.3951C7.7999 10.3702 7.77976 10.3501 7.7549 10.3501H6.5999H5.4449C5.42005 10.3501 5.3999 10.3702 5.3999 10.3951V13.1501V15.9501V18.7051C5.3999 18.73 5.42005 18.7501 5.4449 18.7501H6.5999H7.7549C7.77976 18.7501 7.7999 18.73 7.7999 18.7051V15.9501V13.1501Z" stroke="#828597" stroke-width="1.5" stroke-linecap="round"/>
<path d="M13.2 15.05V13.245C13.2 13.2201 13.1799 13.2 13.155 13.2H12H10.845C10.8202 13.2 10.8 13.2201 10.8 13.245V15.05V16.9V18.705C10.8 18.7298 10.8202 18.75 10.845 18.75H12H13.155C13.1799 18.75 13.2 18.7298 13.2 18.705V16.9V15.05Z" stroke="#828597" stroke-width="1.5" stroke-linecap="round"/>
<path d="M18.6 10.05V5.74495C18.6 5.7201 18.5798 5.69995 18.555 5.69995H17.4H16.245C16.2201 5.69995 16.2 5.7201 16.2 5.74495V10.05V14.4V18.705C16.2 18.7298 16.2201 18.75 16.245 18.75H17.4H18.555C18.5798 18.75 18.6 18.7298 18.6 18.705V14.4V10.05Z" stroke="#1E7AFF" stroke-width="1.5" stroke-linecap="round"/>
</svg>
