<svg width="24" height="24" viewBox="0 0 24 24" fill="none" xmlns="http://www.w3.org/2000/svg">
<path d="M12.0001 9.78013V13.3349M12.0001 16.8896H12.009M10.7696 5.24048L3.46022 17.8657C3.0548 18.566 2.85209 18.9161 2.88205 19.2035C2.90818 19.4541 3.03951 19.6819 3.24333 19.8301C3.47702 20 3.8816 20 4.69077 20H19.3094C20.1186 20 20.5232 20 20.7569 19.8301C20.9607 19.6819 21.092 19.4541 21.1181 19.2035C21.1481 18.9161 20.9454 18.566 20.54 17.8657L13.2306 5.24048C12.8267 4.54271 12.6247 4.19383 12.3612 4.07666C12.1313 3.97445 11.8689 3.97445 11.639 4.07666C11.3755 4.19383 11.1735 4.54272 10.7696 5.24048Z" stroke="#828597" stroke-width="1.5" stroke-linecap="round" stroke-linejoin="round"/>
<path d="M11.9998 9.78015V13.3349M11.9998 16.8896H12.0086" stroke="#1E7AFF" stroke-width="1.5" stroke-linecap="round" stroke-linejoin="round"/>
</svg>
