<svg width="154" height="29" viewBox="0 0 154 29" fill="none" xmlns="http://www.w3.org/2000/svg">
<path d="M26.0312 14.0625V17.2188H15.3125V22.125H11.375V17.2188H0V14.0625H26.0312ZM22.6875 1.25V11.7188H3.25V1.25H22.6875ZM7.15625 4.34375V8.625H18.7812V4.34375H7.15625ZM23.1562 24.75V27.9375H3.0625V19.6562H7.03125V24.75H23.1562ZM38.4375 6.4375C38.4375 11.7812 40.5938 16.9688 45.3438 19.0312L42.9062 22.2188C39.75 20.6719 37.6406 17.8438 36.4688 14.3438C35.2188 18.0625 33.0312 21.1094 29.7812 22.7188L27.2812 19.4688C32.1562 17.2812 34.375 11.7812 34.4062 6.4375V2.1875H38.4375V6.4375ZM51.6875 0V28.5H47.75V12.1562H42.1562V8.9375H47.75V0H51.6875ZM80.0938 16.3125L64.5938 23.1562V18.75L75.125 14.4688V14.2812L64.5938 10.0312V5.625L80.0938 12.5V16.3125ZM104.344 9.40625C104.156 7.625 102.719 6.5625 100.438 6.5625C98.0625 6.5625 96.75 7.65625 96.7188 9.15625C96.6875 10.7812 98.4062 11.5312 100.344 11.9688L102.375 12.4688C106.25 13.3438 109.156 15.3125 109.156 19.0938C109.156 23.25 105.906 25.875 100.406 25.875C94.9375 25.875 91.4375 23.3438 91.3125 18.5H95.875C96.0312 20.7812 97.8438 21.9375 100.344 21.9375C102.812 21.9375 104.406 20.7812 104.406 19.0938C104.406 17.5625 103 16.8438 100.531 16.2188L98.0625 15.625C94.25 14.6875 91.9062 12.7812 91.9062 9.46875C91.9062 5.34375 95.5312 2.625 100.469 2.625C105.469 2.625 108.781 5.40625 108.844 9.40625H104.344ZM132.938 14.25C132.938 21.625 128.344 25.875 122.375 25.875C116.344 25.875 111.781 21.5938 111.781 14.25C111.781 6.875 116.344 2.625 122.375 2.625C128.344 2.625 132.938 6.875 132.938 14.25ZM128.156 14.25C128.156 9.40625 125.875 6.78125 122.375 6.78125C118.875 6.78125 116.562 9.40625 116.562 14.25C116.562 19.0938 118.875 21.7188 122.375 21.7188C125.875 21.7188 128.156 19.0938 128.156 14.25ZM136.312 25.5625V2.9375H145.188C150.344 2.9375 153.281 6.09375 153.281 10.5625C153.281 15.0938 150.281 18.1875 145.062 18.1875H141V25.5625H136.312ZM141 14.4062H144.312C147.094 14.4062 148.438 12.8438 148.438 10.5625C148.438 8.3125 147.094 6.78125 144.312 6.78125H141V14.4062Z" fill="#1E1E1E"/>
</svg>
