<svg width="93" height="33" viewBox="0 0 93 33" fill="none" xmlns="http://www.w3.org/2000/svg">
<g filter="url(#filter0_d_185_12266)">
<rect width="93" height="32" rx="4" fill="white"/>
<rect x="0.5" y="0.5" width="92" height="31" rx="3.5" stroke="#E8E8E8"/>
<g clip-path="url(#clip0_185_12266)">
<path d="M25.5918 10.7776L19.6753 16.6942C18.9717 17.3977 17.8311 17.3977 17.1275 16.6942C16.4225 15.9891 16.4242 14.8456 17.1313 14.1426L21.7194 9.58161L22.8716 8.42938C24.2736 7.02744 26.5466 7.02744 27.9485 8.42939C29.3505 9.83133 29.3505 12.1043 27.9485 13.5063L26.8136 14.6412L22.5124 18.9424C20.2874 21.2601 16.9161 21.6127 14.5589 19.3499C12.2306 17.1147 12.6253 13.7636 14.9794 11.4095L19.2637 7.12451" stroke="#828597" stroke-width="1.5" stroke-linecap="square" stroke-linejoin="round"/>
<rect x="22" y="16" width="10" height="10" rx="1.25" fill="#1E7AFF"/>
<path d="M27 23.5L27 21M27 21L27 18.5M27 21L24.5 21M27 21L29.5 21" stroke="white" stroke-width="1.5" stroke-linecap="square" stroke-linejoin="round"/>
</g>
<path d="M42.9609 11.8721V12.8623H41.793V18.1562C42.3579 18.1245 42.9102 18.0674 43.4434 18.0039L43.5068 18.8799C41.1201 19.2734 38.4414 19.3115 36.4482 19.3242L36.3086 18.3213L37.7559 18.3086V12.8623H36.5879V11.8721H42.9609ZM45.3096 10.7041V15.1855H47.1377V16.1758H45.3096V22.0791H44.1035V10.7041H45.3096ZM38.9238 18.2832C39.4824 18.2769 40.0537 18.2578 40.625 18.2324V12.8623H38.9238V18.2832ZM50.9082 11.085C52.6221 11.0977 53.8789 12.1514 53.8916 13.6367C53.8789 15.1348 52.6221 16.1758 50.9082 16.1758C49.1816 16.1758 47.9121 15.1348 47.9121 13.6367C47.9121 12.1514 49.1816 11.0977 50.9082 11.085ZM50.9082 12.1006C49.8545 12.0879 49.0801 12.71 49.0928 13.6367C49.0801 14.5762 49.8545 15.1982 50.9082 15.1982C51.9492 15.1982 52.7236 14.5762 52.7236 13.6367C52.7236 12.71 51.9492 12.0879 50.9082 12.1006ZM57.1162 10.7041V16.4932H55.9102V10.7041H57.1162ZM57.1162 17.0137V19.8828H50.8447V20.9746H57.4971V21.9395H49.6768V18.9814H55.9229V17.9785H49.6387V17.0137H57.1162ZM62.9053 13.1162C62.9053 14.4619 64.0098 15.6553 65.7363 16.1377L65.1777 17.0898C63.8447 16.709 62.8418 15.9028 62.3213 14.8555C61.8262 15.998 60.8359 16.8804 59.4775 17.3057L58.8936 16.3535C60.6328 15.8457 61.7119 14.5508 61.7119 13.1162V12.9385H59.2363V11.9736H61.7119V10.6533H62.918V11.9736H65.3809V12.9385H62.9053V13.1162ZM68.4023 10.7041V17.4199H67.1963V14.8174H65.0635V13.8271H67.1963V10.7041H68.4023ZM68.4023 17.9658V21.9395H60.8994V17.9658H68.4023ZM62.0928 18.9434V20.9619H67.2217V18.9434H62.0928ZM80.5518 17.3945V18.3467H75.9053V22.0791H74.7246V18.3467H70.1416V17.3945H80.5518ZM72.6299 11.1611V12.6465H78.0381V11.1611H79.2441V16.0996H71.4365V11.1611H72.6299ZM72.6299 15.1348H78.0381V13.6113H72.6299V15.1348Z" fill="#2D3748"/>
</g>
<defs>
<filter id="filter0_d_185_12266" x="0" y="0" width="93" height="33" filterUnits="userSpaceOnUse" color-interpolation-filters="sRGB">
<feFlood flood-opacity="0" result="BackgroundImageFix"/>
<feColorMatrix in="SourceAlpha" type="matrix" values="0 0 0 0 0 0 0 0 0 0 0 0 0 0 0 0 0 0 127 0" result="hardAlpha"/>
<feOffset dy="1"/>
<feComposite in2="hardAlpha" operator="out"/>
<feColorMatrix type="matrix" values="0 0 0 0 0 0 0 0 0 0 0 0 0 0 0 0 0 0 0.05 0"/>
<feBlend mode="normal" in2="BackgroundImageFix" result="effect1_dropShadow_185_12266"/>
<feBlend mode="normal" in="SourceGraphic" in2="effect1_dropShadow_185_12266" result="shape"/>
</filter>
<clipPath id="clip0_185_12266">
<rect width="20" height="20" fill="white" transform="translate(12 6)"/>
</clipPath>
</defs>
</svg>
