<svg width="104" height="38" viewBox="0 0 104 38" fill="none" xmlns="http://www.w3.org/2000/svg">
<path d="M34.1875 13.8438C34 12.0625 32.5625 11 30.2812 11C27.9062 11 26.5938 12.0938 26.5625 13.5938C26.5312 15.2188 28.25 15.9688 30.1875 16.4062L32.2188 16.9062C36.0938 17.7812 39 19.75 39 23.5312C39 27.6875 35.75 30.3125 30.25 30.3125C24.7812 30.3125 21.2812 27.7812 21.1562 22.9375H25.7188C25.875 25.2188 27.6875 26.375 30.1875 26.375C32.6562 26.375 34.25 25.2188 34.25 23.5312C34.25 22 32.8438 21.2812 30.375 20.6562L27.9062 20.0625C24.0938 19.125 21.75 17.2188 21.75 13.9062C21.75 9.78125 25.375 7.0625 30.3125 7.0625C35.3125 7.0625 38.625 9.84375 38.6875 13.8438H34.1875ZM42.0625 30V7.375H50.9375C56.0938 7.375 59.0312 10.5312 59.0312 15C59.0312 19.5312 56.0312 22.625 50.8125 22.625H46.75V30H42.0625ZM46.75 18.8438H50.0625C52.8438 18.8438 54.1875 17.2812 54.1875 15C54.1875 12.75 52.8438 11.2188 50.0625 11.2188H46.75V18.8438ZM77.125 15.25C76.75 12.75 74.8125 11.2188 72.1875 11.2188C68.6562 11.2188 66.3438 13.9375 66.3438 18.6875C66.3438 23.5625 68.6875 26.1562 72.1562 26.1562C74.75 26.1562 76.6562 24.7188 77.125 22.2812L81.875 22.3125C81.3438 26.5 77.8438 30.3125 72.0938 30.3125C66.0312 30.3125 61.5625 26.0625 61.5625 18.6875C61.5625 11.3125 66.125 7.0625 72.0938 7.0625C77.3125 7.0625 81.25 10.0625 81.875 15.25H77.125Z" fill="#1E1E1E"/>
</svg>
